<?xml version="1.0" encoding="UTF-8"?>
<svg xmlns="http://www.w3.org/2000/svg" xmlns:xlink="http://www.w3.org/1999/xlink" viewBox="0 0 325.33 478.86">
  <defs>
    <style>
      .cls-1 {
        fill: #2f2f3f;
      }

      .cls-2 {
        fill: #fff;
      }

      .cls-3 {
        fill: rgba(255, 255, 255, .29);
      }

      .cls-4 {
        fill: #ad652b;
      }

      .cls-5 {
        fill: #d99d7a;
        mix-blend-mode: multiply;
        opacity: .4;
      }

      .cls-6 {
        fill: #ffcb9e;
      }

      .cls-7 {
        isolation: isolate;
      }

      .cls-8 {
        stroke: #231815;
      }

      .cls-8, .cls-9 {
        fill: #231815;
      }

      .cls-8, .cls-10 {
        stroke-miterlimit: 10;
      }

      .cls-11 {
        fill: #f495a1;
      }

      .cls-12 {
        fill: #e6e6e6;
      }

      .cls-13 {
        fill: #8f4e20;
      }

      .cls-14 {
        opacity: .1;
      }

      .cls-15 {
        fill: #5c2e0e;
      }

      .cls-16 {
        fill: url(#radial-gradient);
        opacity: .09;
      }

      .cls-17 {
        fill: #d49d6a;
      }

      .cls-18 {
        fill: #f2f2f2;
      }

      .cls-19 {
        fill: #f1aa83;
      }

      .cls-10 {
        fill: none;
        stroke: #151515;
        stroke-linecap: round;
        stroke-width: 4px;
      }
    </style>
    <radialGradient id="radial-gradient" cx="-178.23" cy="63067.75" fx="-178.23" fy="63067.75" r="115.56" gradientTransform="translate(351.29 -11305.42) scale(1.15 .19)" gradientUnits="userSpaceOnUse">
      <stop offset="0" stop-color="#000"/>
      <stop offset=".92" stop-color="#000"/>
    </radialGradient>
  </defs>
  <g class="cls-7">
    <g id="_レイヤー_1" data-name="レイヤー 1">
      <g>
        <path class="cls-9" d="m197.22,189.82C310.5,153.28,295.12,30.85,155.64,1.88-24.5,11.92-15.97,170.87,102.11,190.35"/>
        <g>
          <path class="cls-16" d="m283.37,455.57c0,13.6-61.37,24.65-137.07,24.65s-137.1-11.05-137.1-24.65,61.37-24.6,137.1-24.6,137.07,11.02,137.07,24.6Z"/>
          <g>
            <path class="cls-6" d="m107.34,439.94c-8.54,0-15.51-6.86-15.62-15.42-.35-26.68,2.24-30.17,4.53-59.72l.83-10.83c.66-8.61,8.27-15.06,16.77-14.39,8.6.65,15.05,8.16,14.4,16.77l-.84,10.87c-2.23,28.89-4.77,31.63-4.44,56.9.11,8.63-6.8,15.72-15.42,15.83h-.21Z"/>
            <path class="cls-6" d="m177.41,439.94h-.2c-8.63-.11-15.54-7.19-15.43-15.82.32-25.13-2.09-26.26-4.41-56.38l-.88-11.4c-.65-8.6,5.79-16.11,14.4-16.76,8.63-.59,16.11,5.8,16.77,14.4l.87,11.35c2.38,30.8,4.83,32.66,4.5,59.18-.11,8.56-7.08,15.43-15.62,15.43Z"/>
          </g>
          <path class="cls-1" d="m94.08,305.11l-4.11,102.88s25.83,11.32,34.3,0l13.81-55.32h8l12.79,55.51s30.77,7.6,36.54-3.07l-4.76-101.86s-19.23-14.14-53.02-14.14-43.33,10.27-43.56,16Z"/>
          <g>
            <g>
              <g>
                <path class="cls-6" d="m204.05,253.06c15.29,43.41,91.2,58.8,92.45-29.38l-25.25-2.83c.87,53.39-26.97,47.3-45.58,23.34-4.99-6.43-23.98,2.2-21.63,8.87Z"/>
                <g>
                  <path class="cls-6" d="m316.46,196.87c-.74-2.11-2.98-7.7-3.35-9.74-.33-1.83.45-3.98-.88-5.65-2.02-2.55-6.62-2.85-10.02-3.09-4.9-.35-7.35-.13-12.3,0-7.34.2-26.01,5.98-28.31,10.5-4.98,9.82,7.39,25.5,8.44,31.08,1.05,5.58,3.92,10.32,11.68,10.98,15.53,1.32,14.31-12.82,24.8-18.19,3.27-1.67,4.5-2.15,7.58-4.13,3.92-2.52,3.84-7.5,2.36-11.75Z"/>
                  <path class="cls-6" d="m285.67,164.77c-3.58-10.28-14.32-15.31-13.01-8.76.81,4.05,1.08,12.63-2.19,19.35-3.1,6.36-12.94,12.35-9.95,20.55,2.4,6.65,10.55,5.83,15.31,2.94,8.75-5.32,13.86-22.55,9.84-34.08Z"/>
                  <path class="cls-5" d="m279.82,182.25c2.11-1.68,3.54-1.75,5.24-1.83-3.43,3.55.87,9.66,3.6,11.83-1.49,5.17,2.9,9.94,5.61,14.69,3.22,5.63,10.01,5.17,10.01,5.17,0,0-11.94,3.39-13.85,3.34-8.43-.23-5.23-6.38-7.33-11.58-1.44-3.56-4.77-8.77-5.95-12.4-1.22-3.75-.54-6.64,2.68-9.21Z"/>
                </g>
              </g>
              <path class="cls-12" d="m187.04,206.8c33.74,16.01,31.89,30.52,65.94,48.6-2.44,12.4-23.49,41.83-36.46,47.33-30.26-28.6-39.21-100.54-29.48-95.93Z"/>
              <g class="cls-14">
                <path d="m206.62,244.36c9.1,2.19-.06,22.71-1.08,27,.47-1.83,11.81-10.24,13.33-7.75,2.21,3.64-13.64,14.62-18.53,18.14,0,0,3.47-38.07,6.28-37.39Z"/>
              </g>
            </g>
            <g>
              <path class="cls-12" d="m97.33,207.89c-23.6,18.44-18.22,47.92-11.76,75.91,4,17.32,8.51,21.31,5.63,49.44-1.55,15.17,113.35,13.09,105.8-1.16-13.42-25.33.26-35.02,4.08-52.06,6.91-30.82,14.76-58.36-10.91-72.13-19.56-10.49-71.25-16.87-92.83,0Z"/>
              <path class="cls-18" d="m178.78,217.3c1.72-4.21,1.89-8.6-.47-12.97-9.85-18.28-62.46-18.35-67.37,3.43-.84,3.76.1,7.55,2.13,11.22,14.62,26.37,54.6,25.48,65.71-1.67Z"/>
              <path class="cls-19" d="m117.23,200.51c1.13-19.37,17.02-26.75,28.3-26.73,11.28-.02,27.17,7.36,28.3,26.73.52,9.02-.67,14.23-4.84,19.24-10.91,13.09-35.25,14.01-46.92,0-4.17-5.01-5.36-10.22-4.83-19.24Z"/>
            </g>
            <g>
              <path class="cls-6" d="m74.85,345.93c2.8,2.17.53,9,7.58,12.87,7.03,3.87-5.96.54-7.63,6.59-1.69,6.04,26.24,11.88,30.8-7.5,4.32-18.37-7.26-24.99-21.8-26.48-9.65-.98-13.52,10.98-8.94,14.52Z"/>
              <path class="cls-6" d="m82.21,353.04c-1.8,0-3.64-.42-5.35-1.31-21.01-10.87-34.1-26.35-37.86-44.76-4.07-19.91,3.09-41.7,20.68-63.01,4.1-4.97,11.45-5.66,16.42-1.56,4.97,4.1,5.67,11.45,1.57,16.42-12.95,15.68-18.43,30.72-15.82,43.48,2.91,14.24,15.6,23.47,25.73,28.72,5.72,2.96,7.96,9.99,5,15.72-2.08,4-6.15,6.3-10.37,6.3Z"/>
              <path class="cls-12" d="m99.65,205.95c-33.73,16.01-51.23,36.99-70.21,70.55,8.73,9.14,42.31,22.62,56.2,20.29,3.71-36.3,23.73-95.46,14-90.84Z"/>
              <g class="cls-14">
                <path d="m86.62,246.57c-9.37.31-3.86,26.38-3.59,31.6-.15-2.24-9.9-14.8-11.83-12.28-2.81,3.68,10.95,20.34,15.18,25.63,0,0,3.12-45.05.23-44.96Z"/>
              </g>
            </g>
          </g>
        </g>
        <path class="cls-6" d="m244.32,147.19c0,57.16-46.34,81.17-103.5,81.17s-103.5-24.01-103.5-81.17S83.66,23.47,140.82,23.47s103.5,66.56,103.5,123.72Z"/>
        <circle class="cls-2" cx="97.07" cy="129.44" r="24.75"/>
        <circle class="cls-2" cx="180.07" cy="129.44" r="24.75"/>
        <circle class="cls-9" cx="99.32" cy="129.44" r="12"/>
        <circle class="cls-9" cx="180.07" cy="129.44" r="12"/>
        <path class="cls-11" d="m97.07,182.69h91.25s-16.25,22-45.62,22-45.62-22-45.62-22Z"/>
        <path class="cls-11" d="m97.07,182.69h91.25s-16.25,12-45.62,12-45.62-12-45.62-12Z"/>
        <path class="cls-17" d="m149.32,149.19s11,6.5,6,14.5-18.72,5-19.36,0"/>
        <path class="cls-17" d="m72.57,117.81h49.25s-2.89-13.12-24.75-13.12-24.5,13.12-24.5,13.12Z"/>
        <path class="cls-17" d="m155.45,117.81h49.25s-2.89-13.12-24.75-13.12-24.5,13.12-24.5,13.12Z"/>
        <path class="cls-8" d="m119.42,5.65c14.09-2.34,28.15-.72,41.63,3.77,18.21,6.06,36.9,13.26,49.85,26.9,11.75,12.37,18.07,28.34,21.15,44.09,1.7,8.75,6.93,22.64,6.79,31.29-.73-34.68-54.93-43.29-56.43-67.06-5.9,8.86-26.51,38.28-71.79,49.72-42.58,10.77-69.2,20.31-72.23,37.49-14.16-16.1,16.81-49.6,18.5-59.18,5.36-30.44,27.02-61.11,62.53-67.02Z"/>
        <circle class="cls-10" cx="96.92" cy="125.91" r="36.32"/>
        <circle class="cls-10" cx="185" cy="125.91" r="36.32"/>
        <line class="cls-10" x1="221.32" y1="125.91" x2="245.89" y2="125.91"/>
        <line class="cls-10" x1="60.6" y1="125.91" x2="37.32" y2="125.91"/>
        <g>
          <g>
            <path class="cls-17" d="m215.11,445.87c1.94,1.69.97,13.46-.02,15.54-4.22,8.96-36.61,12.84-47.04,2.65-14.22-13.91-9.45-32.66-8.22-34.03,1.23-1.37,53.83,14.58,55.27,15.84Z"/>
            <path class="cls-13" d="m184.02,421.19c14.57-2.16,10.94-12.52,14.06-7.65,3.17,4.95,5.48,10.58,8.75,14.2,4.64,5.1,10.28,12.97,7.92,19.57-4.71,13.09-37.19,14.48-46.93,5.22-8.23-7.81-10.66-22.07-7.52-33.36,2.43-8.72,3.29,5.06,23.73,2.02Z"/>
            <path class="cls-13" d="m198.9,414.89c-11.97-19.34-30.66-8.53-33.66,4.33-3.39,14.49,44.28,12.82,33.66-4.33Z"/>
            <path class="cls-4" d="m169.15,431.76c-.27,2.18,1.29,4.16,3.47,4.42,2.17.27,4.16-1.29,4.42-3.47.26-2.17-1.28-4.15-3.47-4.42-2.18-.26-4.15,1.28-4.42,3.46Z"/>
            <path class="cls-4" d="m165.51,423.99c-.27,2.17,1.29,4.15,3.47,4.42,2.17.26,4.16-1.28,4.42-3.46.27-2.18-1.28-4.15-3.46-4.42-2.18-.26-4.16,1.29-4.42,3.47Z"/>
            <path class="cls-4" d="m192.54,418.35c-.26,2.18,1.29,4.16,3.46,4.42,2.18.26,4.16-1.28,4.42-3.46.27-2.18-1.28-4.16-3.46-4.42-2.17-.26-4.16,1.29-4.42,3.46Z"/>
            <path class="cls-4" d="m197.05,426.51c-.26,2.18,1.28,4.16,3.47,4.42,2.18.26,4.16-1.28,4.42-3.46.27-2.18-1.29-4.16-3.47-4.43-2.18-.26-4.15,1.29-4.42,3.47Z"/>
            <path class="cls-15" d="m173.69,434.31c-.83,0-1.64-.39-2.15-1.11-.85-1.19-.57-2.84.61-3.69,9.68-6.91,20.24-9.09,29.78-6.11,1.39.43,2.17,1.92,1.74,3.31-.44,1.4-1.9,2.17-3.31,1.74-10.68-3.32-20.33,1.94-25.14,5.38-.47.33-1,.49-1.53.49Z"/>
            <path class="cls-15" d="m170.98,426.91c-.92,0-1.82-.49-2.3-1.34-.72-1.27-.27-2.89,1-3.6,10.58-5.99,19.75-8.15,27.22-6.42,1.42.33,2.31,1.75,1.98,3.17-.33,1.42-1.74,2.29-3.17,1.98-6.16-1.47-14.03.54-23.43,5.86-.41.24-.86.35-1.3.35Z"/>
            <path class="cls-15" d="m169.48,455.66c-.19,0-.37-.02-.57-.06-1.43-.31-2.33-1.72-2.02-3.15.55-2.54,1.31-5.51,2.7-8.38,3.62-7.41,10.6-12.64,19.15-14.34,9.34-1.85,19,.66,25.87,6.74,1.09.97,1.2,2.63.23,3.73-.96,1.1-2.64,1.19-3.73.23-5.65-4.99-13.61-7.04-21.34-5.51-6.92,1.37-12.54,5.56-15.43,11.48-1.15,2.35-1.8,4.95-2.28,7.18-.27,1.24-1.36,2.08-2.58,2.08Z"/>
          </g>
          <g>
            <path class="cls-17" d="m70.28,445.87c-1.94,1.69-.97,13.46.02,15.54,4.22,8.96,36.61,12.84,47.03,2.65,14.23-13.91,9.45-32.66,8.22-34.03-1.23-1.37-53.83,14.58-55.27,15.84Z"/>
            <path class="cls-13" d="m101.37,421.19c-14.57-2.16-10.94-12.52-14.06-7.65-3.17,4.95-5.48,10.58-8.74,14.2-4.64,5.1-10.29,12.97-7.92,19.57,4.7,13.09,37.18,14.48,46.93,5.22,8.23-7.81,10.66-22.07,7.52-33.36-2.43-8.72-3.29,5.06-23.73,2.02Z"/>
            <path class="cls-13" d="m86.48,414.89c11.97-19.34,30.67-8.53,33.67,4.33,3.39,14.49-44.28,12.82-33.67-4.33Z"/>
            <path class="cls-4" d="m116.23,431.76c.27,2.18-1.28,4.16-3.47,4.42-2.17.27-4.15-1.29-4.42-3.47-.26-2.17,1.29-4.15,3.47-4.42,2.18-.26,4.16,1.28,4.42,3.46Z"/>
            <path class="cls-4" d="m119.88,423.99c.26,2.17-1.29,4.15-3.47,4.42-2.17.26-4.15-1.28-4.41-3.46-.27-2.18,1.28-4.15,3.46-4.42,2.18-.26,4.16,1.29,4.42,3.47Z"/>
            <path class="cls-4" d="m92.85,418.35c.26,2.18-1.29,4.16-3.46,4.42-2.17.26-4.16-1.28-4.42-3.46-.27-2.18,1.28-4.16,3.46-4.42,2.17-.26,4.16,1.29,4.42,3.46Z"/>
            <path class="cls-4" d="m88.34,426.51c.26,2.18-1.29,4.16-3.47,4.42-2.18.26-4.16-1.28-4.42-3.46-.27-2.18,1.29-4.16,3.47-4.43,2.17-.26,4.15,1.29,4.42,3.47Z"/>
            <path class="cls-15" d="m111.69,434.31c-.53,0-1.07-.16-1.53-.49-4.81-3.44-14.46-8.69-25.14-5.38-1.39.44-2.87-.34-3.31-1.74-.43-1.39.34-2.88,1.74-3.31,9.52-2.96,20.11-.79,29.78,6.11,1.19.85,1.47,2.5.62,3.69-.52.72-1.33,1.11-2.16,1.11Z"/>
            <path class="cls-15" d="m114.41,426.91c-.44,0-.89-.11-1.3-.35-9.4-5.32-17.28-7.33-23.43-5.86-1.43.31-2.84-.56-3.17-1.98-.33-1.42.55-2.84,1.98-3.17,7.48-1.75,16.65.43,27.23,6.42,1.27.72,1.72,2.33,1,3.6-.49.85-1.38,1.34-2.3,1.34Z"/>
            <path class="cls-15" d="m115.91,455.66c-1.22,0-2.31-.85-2.58-2.08-.48-2.23-1.14-4.83-2.28-7.18-2.89-5.92-8.52-10.11-15.44-11.48-7.73-1.54-15.69.53-21.34,5.51-1.09.97-2.77.87-3.73-.23-.97-1.09-.86-2.76.23-3.73,6.87-6.08,16.54-8.58,25.87-6.74,8.55,1.7,15.53,6.93,19.15,14.35,1.39,2.86,2.15,5.84,2.7,8.38.31,1.43-.59,2.83-2.02,3.15-.19.04-.38.06-.57.06Z"/>
          </g>
        </g>
        <g>
          <circle class="cls-17" cx="88.36" cy="179.27" r="1.47"/>
          <circle class="cls-17" cx="74.41" cy="179.27" r="1.47"/>
          <circle class="cls-17" cx="79.47" cy="188.16" r="1.47"/>
        </g>
        <g>
          <circle class="cls-17" cx="216.69" cy="179.27" r="1.47"/>
          <circle class="cls-17" cx="202.73" cy="179.27" r="1.47"/>
          <circle class="cls-17" cx="207.79" cy="188.16" r="1.47"/>
        </g>
        <g>
          <path class="cls-3" d="m102.09,40.58s-7.24,19.4-55.24,35.03"/>
          <path class="cls-3" d="m129.81,40.58s-7.24,19.4-55.24,35.03"/>
          <path class="cls-3" d="m161.26,40.58s-7.24,19.4-55.24,35.03"/>
        </g>
      </g>
    </g>
  </g>
</svg>