<?xml version="1.0" encoding="UTF-8"?>
<svg id="_レイヤー_1" data-name="レイヤー 1" xmlns="http://www.w3.org/2000/svg" xmlns:xlink="http://www.w3.org/1999/xlink" viewBox="0 0 325.33 478.86">
  <defs>
    <style>
      .cls-1 {
        fill: #f09abf;
      }

      .cls-2 {
        fill: #acd14b;
      }

      .cls-3 {
        fill: rgba(255, 255, 255, .29);
      }

      .cls-4 {
        fill: #ad652b;
      }

      .cls-5 {
        fill: #8e9194;
      }

      .cls-6 {
        fill: #ffcb9e;
      }

      .cls-7 {
        fill: #f77792;
      }

      .cls-8 {
        fill: #85b428;
      }

      .cls-9 {
        fill: #51312a;
      }

      .cls-10 {
        fill: #8f4e20;
      }

      .cls-11 {
        opacity: .1;
      }

      .cls-12 {
        fill: #eb8449;
      }

      .cls-13 {
        fill: #5c2e0e;
      }

      .cls-14 {
        fill: none;
        stroke: #51312a;
        stroke-linecap: round;
        stroke-linejoin: round;
        stroke-width: 8px;
      }

      .cls-15 {
        fill: #6e7073;
      }

      .cls-16 {
        fill: url(#radial-gradient);
        opacity: .09;
      }

      .cls-17 {
        fill: #d49d6a;
      }

      .cls-18 {
        fill: #ffc38f;
      }

      .cls-19 {
        fill: #f7d7e7;
      }
    </style>
    <radialGradient id="radial-gradient" cx="-209.14" cy="63059.28" fx="-209.14" fy="63059.28" r="115.56" gradientTransform="translate(408.16 -11305.42) scale(1.15 .19)" gradientUnits="userSpaceOnUse">
      <stop offset="0" stop-color="#000"/>
      <stop offset=".92" stop-color="#000"/>
    </radialGradient>
  </defs>
  <g>
    <g>
      <path class="cls-16" d="m304.69,453.99c0,13.6-61.37,24.65-137.07,24.65s-137.1-11.05-137.1-24.65,61.37-24.6,137.1-24.6,137.07,11.02,137.07,24.6Z"/>
      <g>
        <path class="cls-18" d="m63.09,292.43c-2.32,0-4.68-.21-7.07-.64-16.21-2.97-29.71-15.53-41.26-38.4-2.81-5.58-.58-12.38,5-15.19,5.59-2.83,12.37-.58,15.19,5,5.52,10.93,14.36,24.38,25.14,26.36,13.16,2.4,28.86-11.97,40.33-22.48,6.61-6.05,11.83-10.83,17.03-13.27,5.64-2.67,12.39-.22,15.04,5.43,2.65,5.66.22,12.39-5.43,15.04-2.09.98-7.23,5.69-11.37,9.48-12.73,11.65-31.32,28.68-52.6,28.68Z"/>
        <path class="cls-18" d="m3.56,210.02c2.75-1.23,4.96,2.55,5.57,5.82-.19-3.34.69-12.83,4.85-14.01,4.03-1.14,4.01,3.27,4.76,9.07,1.01-7.77,8.24-10.06,9.53-1.55.73,4.81,1.86,10.7,5.48,17.39,5.59-5.21,13.05-5.89,14.29-1.03.8,3.09-2.68,3.31-5.62,10.68-3.01,7.65-.97,22.27-17.38,24.17-9.89,1.13-16.92-13.94-20.42-21.74-2.72-5.98-8.01-25.73-1.06-28.81Z"/>
      </g>
      <path class="cls-18" d="m233.71,342.79c-2.98,0-5.95-1.17-8.17-3.49-4.32-4.51-4.15-11.67.36-15.99,12.46-11.92,18.14-23.28,16.89-33.77-2.05-17.17-21.64-31.88-37.71-41.21-5.4-3.13-7.24-10.05-4.1-15.45,3.13-5.4,10.05-7.25,15.45-4.1,29.86,17.32,46.28,36.86,48.81,58.08,2.14,17.93-5.84,35.7-23.72,52.8-2.19,2.09-5,3.13-7.81,3.13Z"/>
      <path class="cls-6" d="m230,346.63c-4.17,0-8.24-2.11-10.56-5.94-3.53-5.83-1.67-13.41,4.16-16.95,8.49-5.15,18.67-13.97,18.94-26.72.31-15.13-13.51-33.1-37.9-49.29-5.68-3.77-7.23-11.42-3.46-17.1,3.77-5.68,11.43-7.23,17.1-3.46,41.06,27.25,49.27,53.29,48.92,70.34-.38,18.7-11.32,35.5-30.81,47.32-2,1.21-4.2,1.79-6.38,1.79Z"/>
      <path class="cls-6" d="m238.78,338.02c-2.8,3.23.35,11.03-6.84,17.23-7.19,6.18,6.5-.62,8.93,6.36,2.45,6.98-27.09,19.99-34.04-2.56-6.59-21.37,5.23-31.86,20.78-36.75,10.32-3.24,15.75,10.46,11.17,15.72Z"/>
      <g>
        <path class="cls-8" d="m209.79,206.57c32.15,13.3,30.4,25.34,62.85,40.35-2.33,10.3-22.39,34.74-34.76,39.31-28.84-23.76-37.36-83.49-28.09-79.66Z"/>
        <g>
          <path class="cls-15" d="m116.39,337.98c-.16-4.94-.55-10.56-.59-14.55-.5-49.28,96.48-50.13,95.98-.85-.04,3.99-.3,11.19-.57,15.4-1.25,19.29-42.6,23.53-44.14,5.84,0,0-.44-3.62-.75-4.95-.69-3.03-4.56-3.06-5.08-.13-.24,1.35-.7,4.7-.7,4.7-1.41,17.7-43.52,13.47-44.14-5.46Z"/>
          <path class="cls-5" d="m167.06,343.44c.3,7.01,9.4,73.74,8.43,89.25,7.01,4.15,28.14,3.33,36.73-2.95-4.76-15.36-1.15-70.65-1.02-91.77.04-6.51-44.47-2.23-44.14,5.46Z"/>
          <path class="cls-5" d="m160.52,343.44c-.3,7.01-9.4,73.74-8.43,89.25-7,4.15-28.14,3.33-36.72-2.95,4.76-15.36,1.15-70.65,1.02-91.77-.04-6.51,44.47-2.23,44.14,5.46Z"/>
        </g>
        <g>
          <path class="cls-8" d="m117.46,206.57c-23.47,15.98-18.12,41.53-11.69,65.78,3.98,15.01,15.82,22.78,5.6,42.84-6.16,12.08,112.74,11.34,105.23-1.01-13.35-21.94.26-30.34,4.06-45.11,6.87-26.7,14.68-50.57-10.86-62.51-19.45-9.09-70.86-14.61-92.33,0Z"/>
          <path class="cls-2" d="m202.68,214.73c1.93-3.65,2.12-7.46-.52-11.23-11.04-15.84-70.02-15.9-75.52,2.97-.95,3.25.11,6.54,2.38,9.72,16.39,22.85,61.21,22.08,73.66-1.45Z"/>
          <g class="cls-11">
            <path d="m212.55,275.35c-4.02,4.19-15.26,9.49-22.83,10.98,7.46.85,12.54,1.27,20.63,1.23-11.38,4.66-26.57,5.12-38.88,6.54-.3,0-.3-.01,0-.02,4.26,1.4,8.65,2.34,12.9,3.54-14.73.67-30.6,1.12-46.67-1.94,4.11-.55,9.45-.76,12.65-3.18-8.09-.43-22.73-1.73-29.46-6.19,2.64-.45,16.46.09,18.31,0-9.56-3.14-21.49-6.84-29.18-13.68,31.8,11.7,74.92,9.68,102.54,2.71Z"/>
          </g>
          <path class="cls-12" d="m133.69,200.18c1.27-16.79,19.09-23.18,31.72-23.15,12.64-.03,30.46,6.37,31.72,23.15.59,7.81-.75,12.34-5.42,16.67-12.23,11.34-39.52,12.13-52.6,0-4.67-4.34-6.01-8.86-5.42-16.67Z"/>
        </g>
        <g>
          <path class="cls-10" d="m159.48,312.66c-2.32-6.15-59.49-7.26-63.93-4.5-4.44,2.75-6.66,42.69,6.39,51.99,10.77,7.68,30.26,7.82,37.03,3.79,16.81-10.02,26.36-35.81,20.51-51.28Z"/>
          <path class="cls-13" d="m154.27,319.46c-1.64,0-3.27-.63-4.36-1.84-1.9-2.1-1.49-5.14.91-6.8.59-.4,58.64-44.23,54.69-103.34-.18-2.67,2.16-4.96,5.23-5.12,3.05-.19,5.69,1.88,5.87,4.55,4.27,63.85-58.26,111.07-58.9,111.51-1.02.7-2.24,1.04-3.44,1.04Z"/>
          <path class="cls-4" d="m96.83,322.91c.54-.25,1.2-.3,2.02-.08,1.87.5,4.09,3.04,5.76,4.01,2.82,1.64,5.95,3.14,9.22,3.95,5.05,1.26,9.74,3.12,13.21,6.65,1.3,1.31,2.64,2.94,4.55,3.57,1.45.49,2.88.2,4.37.18-1.32,3.96-4.53,6.76-8.41,9.04-8.87,5.2-20.21,3.74-26.88-3.57-3.5-3.84-5.64-8.8-5.95-13.69-.12-1.93-.75-8.76,2.1-10.07Z"/>
          <path class="cls-13" d="m96.51,344.64c8.46,9.04,23.19,19.25,41.02-.09-11.46,16.36-29.47,18.88-41.02.09Z"/>
          <ellipse class="cls-13" cx="108.66" cy="344.73" rx="2.87" ry="3.01"/>
        </g>
        <g>
          <path class="cls-8" d="m118.54,205.86c-32.15,13.3-48.83,30.72-66.91,58.58,8.32,7.59,40.32,18.79,53.57,16.85,3.53-30.14,22.62-79.26,13.35-75.43Z"/>
          <g class="cls-11">
            <path d="m106.12,239.59c-8.92.25-3.67,21.9-3.41,26.24-.14-1.86-9.44-12.29-11.27-10.2-2.68,3.05,10.44,16.89,14.47,21.29,0,0,2.97-37.4.22-37.33Z"/>
          </g>
        </g>
      </g>
      <g class="cls-11">
        <path d="m238.43,229.03c-9.24-1.55-8.99,25.1-9.75,30.27.3-2.22-6.79-16.46-9.17-14.37-3.48,3.05,6.72,22.11,9.82,28.13,0,0,11.95-43.55,9.1-44.03Z"/>
      </g>
    </g>
    <path class="cls-9" d="m178.12,164.74c30.08-.91,41.49,28,53.71,30.9C369.2,228.21,345.58,30.25,179.33-2.07-34.62,5.41-45.84,221.57,118.81,194.64c30.19-4.94,11.58-28.45,59.31-29.9Z"/>
    <g>
      <path class="cls-1" d="m113.59,419.22c-2.85,2.65-18.17,13.5-20.53,20.21-1.9,5.4-.35,12.1,2.02,14,11.13,8.93,49.97,6.81,58.75-7.11,1.79-2.84,1.5-24.25-4.98-21.34-7.89,3.56-17.05-11.77-23.56-12.05-5.84-.26-8.21,3.04-11.7,6.29Z"/>
      <path class="cls-19" d="m154.58,439.29c-10.87,15.57-49.61,20.14-61.24,9.9-1.98-1.74-.66,7.81,1.76,10.03,10.62,9.75,47.57,6.36,59.35-8.96,2.45-3.16,1.55-12.99.13-10.97Z"/>
    </g>
    <g>
      <path class="cls-1" d="m224.75,419.02c2.86,2.65,18.17,13.5,20.54,20.21,1.89,5.4.34,12.1-2.03,14-11.13,8.93-49.97,6.81-58.74-7.11-1.79-2.84-1.51-24.25,4.98-21.34,7.89,3.56,17.04-11.77,23.56-12.05,5.84-.26,8.22,3.04,11.7,6.29Z"/>
      <path class="cls-19" d="m183.76,439.08c10.86,15.57,49.61,20.14,61.25,9.9,1.98-1.74.66,7.81-1.76,10.03-10.62,9.75-47.58,6.36-59.36-8.96-2.44-3.16-1.55-12.99-.13-10.97Z"/>
    </g>
    <path class="cls-6" d="m265.63,145.61c0,57.16-46.34,81.17-103.5,81.17s-103.5-24.01-103.5-81.17S104.97,21.89,162.13,21.89s103.5,66.56,103.5,123.72Z"/>
    <path class="cls-7" d="m118.38,181.11h91.25s-16.25,22-45.62,22-45.62-22-45.62-22Z"/>
    <path class="cls-7" d="m118.38,181.11h91.25s-16.25,12-45.62,12-45.62-12-45.62-12Z"/>
    <path class="cls-17" d="m170.63,147.61s11,6.5,6,14.5-18.72,5-19.36,0"/>
    <path class="cls-9" d="m134.58,11.77c17.12-2.02,34.29-.07,50.83,4.74,22.33,6.49,45.28,14.15,61.38,28.12,14.61,12.67,22.68,28.83,26.8,44.69,2.28,8.81-5.12,23.62-5.08,32.29-1.69-34.78-53.87-45.43-56.24-69.29-6.99,8.75-31.42,37.75-86.33,48.18-51.65,9.8-43.87,22.61-47.16,39.76-17.63-16.47-20.67-53.19-18.83-62.75,5.83-30.39,31.51-60.63,74.65-65.73Z"/>
    <g>
      <path class="cls-3" d="m126.7,54.51s-7.24,19.4-55.24,35.03"/>
      <path class="cls-3" d="m154.43,54.51s-7.24,19.4-55.24,35.03"/>
      <path class="cls-3" d="m185.88,54.51s-7.24,19.4-55.24,35.03"/>
    </g>
    <g>
      <path class="cls-3" d="m284.24,131.64s6.22,13.12-6.04,38.76"/>
      <path class="cls-3" d="m295.6,121.73s6.22,13.12-6.04,38.76"/>
      <path class="cls-3" d="m308.48,110.48s6.22,13.12-6.04,38.76"/>
    </g>
  </g>
  <g>
    <path class="cls-14" d="m100.26,141.84s7.52-11.51,22.16-15.63c15.91-4.47,20.53-1.27,23.91,2.18"/>
    <path class="cls-9" d="m114.79,132.97s9.84-1.13,18.77-1.24c7.68-.1,14.69,1.06,14.21-1.58-1.05-5.7-29.76-5.48-32.98,2.82Z"/>
  </g>
  <g>
    <path class="cls-14" d="m231.41,141.84s-9.75-11.3-21.88-14.63c-15.94-4.37-23.27-.48-26.52,3.11"/>
    <path class="cls-9" d="m212.72,132.57s-33.89,4.17-33.06-1.57,29.53-6.61,33.06,1.57Z"/>
  </g>
</svg>